<?xml version="1.0" encoding="utf-8"?>
<!-- Generator: Adobe Illustrator 24.3.0, SVG Export Plug-In . SVG Version: 6.00 Build 0)  -->
<svg version="1.1" id="Слой_1" xmlns="http://www.w3.org/2000/svg" xmlns:xlink="http://www.w3.org/1999/xlink" x="0px" y="0px"
	 viewBox="0 0 28.35 25.36" style="enable-background:new 0 0 28.35 25.36;" xml:space="preserve">
<style type="text/css">
	.st0{fill:#010202;}
</style>
<g>
	<path class="st0" d="M24,24.91H4.34c-2.11,0-3.83-1.72-3.83-3.83V8.33c0-2.11,1.72-3.83,3.83-3.83h5.64l0.26-1.09
		c0.41-1.74,1.95-2.95,3.73-2.95h4.48c1.78,0,3.32,1.21,3.73,2.95l0.26,1.09H24c2.11,0,3.83,1.72,3.83,3.83v12.74
		C27.84,23.19,26.12,24.91,24,24.91z M4.34,6.41c-1.06,0-1.92,0.86-1.92,1.92v12.74c0,1.06,0.86,1.92,1.92,1.92H24
		c1.06,0,1.92-0.86,1.92-1.92V8.33c0-1.06-0.86-1.92-1.92-1.92h-2.32c-0.44,0-0.83-0.31-0.93-0.74l-0.43-1.83
		c-0.21-0.87-0.97-1.47-1.87-1.47h-4.48c-0.89,0-1.66,0.61-1.87,1.47l-0.43,1.83c-0.1,0.43-0.49,0.74-0.93,0.74H4.34z"/>
	<path class="st0" d="M16.45,21.07c-3.7,0-6.71-3.01-6.71-6.71c0-3.7,3.01-6.71,6.71-6.71c3.7,0,6.71,3.01,6.71,6.71
		C23.16,18.06,20.15,21.07,16.45,21.07z M16.45,9.56c-2.64,0-4.8,2.15-4.8,4.8s2.15,4.8,4.8,4.8s4.8-2.15,4.8-4.8
		S19.09,9.56,16.45,9.56z"/>
	<path class="st0" d="M6.5,13.4c-1.59,0-2.88-1.29-2.88-2.88S4.91,7.65,6.5,7.65s2.88,1.29,2.88,2.88S8.09,13.4,6.5,13.4z M6.5,9.56
		c-0.53,0-0.96,0.43-0.96,0.96s0.43,0.96,0.96,0.96s0.96-0.43,0.96-0.96S7.03,9.56,6.5,9.56z"/>
</g>
</svg>
